<?xml version="1.0" encoding="utf-8"?>
<!-- Generator: Adobe Illustrator 18.1.1, SVG Export Plug-In . SVG Version: 6.00 Build 0)  -->
<svg version="1.1" id="Ebene_1" xmlns="http://www.w3.org/2000/svg" xmlns:xlink="http://www.w3.org/1999/xlink" x="0px" y="0px"
	 viewBox="0 0 311.8 311.8" enable-background="new 0 0 311.8 311.8" xml:space="preserve">
<path d="M211,197.5c0,0-2.2-92.2-63.8-113c0,0,6.3-46.7-36.6-63.8c0,0-7.3-5.1-3.2,8.5c0,0-3.2-9.8-15.8-13.6c0,0-6.3-1.6,5.1,17.1
	c0,0-7.9,8.5-6.8,10.4C91,45,91.4,57,89.8,58.2s-4.5,6.3-4.5,8.2S96.1,81,98.6,79.1c2.5-1.9-16.1,20.2,11.1,71.7
	c0,0,0.9,31.9-3.5,34.1c-4.4,2.2-13.6,6.6-8.8,12.6c0,0,18.3,2.5,19.6,0c1.3-2.5-5.8-7.6,6.7-13.3l6.9-22.7c0,0-1.9,22.7,9.5,24
	c0,0-32.5-5-20.5,13.1l66.6,1.7c0,0,64,83.4,15.4,87.6c-19,1.7-25.6-10.9-29.9-27.4c-1-3.9-5.8-3.3-7.1,0.5
	c-0.9,2.6-0.6,17,11.3,31.7c19.1,23.7,77.3,10.8,56.9-43.4C217.3,208.4,220.5,231,211,197.5z"/>
</svg>
